<?xml version="1.0" encoding="UTF-8" standalone="no"?>
<!-- Created with Inkscape (http://www.inkscape.org/) -->

<svg
   xmlns:osb="http://www.openswatchbook.org/uri/2009/osb"
   xmlns:dc="http://purl.org/dc/elements/1.1/"
   xmlns:cc="http://creativecommons.org/ns#"
   xmlns:rdf="http://www.w3.org/1999/02/22-rdf-syntax-ns#"
   xmlns:svg="http://www.w3.org/2000/svg"
   xmlns="http://www.w3.org/2000/svg"
   xmlns:xlink="http://www.w3.org/1999/xlink"
   xmlns:sodipodi="http://sodipodi.sourceforge.net/DTD/sodipodi-0.dtd"
   xmlns:inkscape="http://www.inkscape.org/namespaces/inkscape"
   sodipodi:docname="minimize-symbolic.svg"
   height="17.066668"
   id="svg7384"
   inkscape:version="0.92.2 (5c3e80d, 2017-08-06)"
   version="1.1"
   width="17.066668"
   viewBox="0 0 16 16">
  <metadata
     id="metadata90">
    <rdf:RDF>
      <cc:Work
         rdf:about="">
        <dc:format>image/svg+xml</dc:format>
        <dc:type
           rdf:resource="http://purl.org/dc/dcmitype/StillImage" />
        <dc:title>Gnome Symbolic Icon Theme</dc:title>
      </cc:Work>
    </rdf:RDF>
  </metadata>
  <sodipodi:namedview
     inkscape:bbox-paths="false"
     bordercolor="#666666"
     borderopacity="1"
     inkscape:current-layer="layer11"
     inkscape:cx="-3.0722846"
     inkscape:cy="9.2224204"
     gridtolerance="10"
     inkscape:guide-bbox="true"
     guidetolerance="10"
     id="namedview88"
     inkscape:object-nodes="false"
     inkscape:object-paths="false"
     objecttolerance="10"
     pagecolor="#555753"
     inkscape:pageopacity="1"
     inkscape:pageshadow="2"
     showborder="false"
     showgrid="true"
     showguides="true"
     inkscape:snap-bbox="true"
     inkscape:snap-bbox-midpoints="false"
     inkscape:snap-global="true"
     inkscape:snap-grids="false"
     inkscape:snap-nodes="false"
     inkscape:snap-others="false"
     inkscape:snap-to-guides="false"
     inkscape:window-height="863"
     inkscape:window-maximized="1"
     inkscape:window-width="1440"
     inkscape:window-x="1366"
     inkscape:window-y="0"
     inkscape:zoom="22.627417"
     inkscape:snap-page="false">
    <inkscape:grid
       empspacing="2"
       enabled="true"
       id="grid4866"
       originx="-42.000007"
       originy="411.99998"
       snapvisiblegridlinesonly="true"
       spacingx="0.99999995"
       spacingy="0.99999995"
       type="xygrid"
       visible="true" />
    <sodipodi:guide
       orientation="0,1"
       position="3.4692424,9.4354556"
       id="guide4029"
       inkscape:locked="false" />
  </sodipodi:namedview>
  <title
     id="title9167">Gnome Symbolic Icon Theme</title>
  <defs
     id="defs7386">
    <marker
       inkscape:stockid="Arrow2Lend"
       orient="auto"
       refY="0"
       refX="0"
       id="Arrow2Lend"
       style="overflow:visible">
      <path
         id="path6573"
         style="fill-rule:evenodd;stroke-width:0.625;stroke-linejoin:round"
         d="M 8.7185878,4.0337352 -2.2072895,0.01601326 8.7185884,-4.0017078 c -1.7454984,2.3720609 -1.7354408,5.6174519 -6e-7,8.035443 z"
         transform="matrix(-1.1,0,0,-1.1,-1.1,0)"
         inkscape:connector-curvature="0" />
    </marker>
    <linearGradient
       id="linearGradient5529"
       osb:paint="solid">
      <stop
         style="stop-color:#000000;stop-opacity:1;"
         offset="0"
         id="stop5531" />
    </linearGradient>
    <linearGradient
       id="linearGradient5523"
       osb:paint="solid">
      <stop
         style="stop-color:#000000;stop-opacity:1;"
         offset="0"
         id="stop5525" />
    </linearGradient>
    <linearGradient
       inkscape:collect="always"
       xlink:href="#linearGradient5523"
       id="linearGradient5527"
       x1="22.175053"
       y1="4.6979117"
       x2="24.846262"
       y2="4.6979117"
       gradientUnits="userSpaceOnUse" />
    <linearGradient
       inkscape:collect="always"
       xlink:href="#linearGradient5529-4"
       id="linearGradient5533-5"
       x1="-0.90625"
       y1="6.15625"
       x2="12.46875"
       y2="6.15625"
       gradientUnits="userSpaceOnUse" />
    <linearGradient
       id="linearGradient5529-4"
       osb:paint="solid">
      <stop
         style="stop-color:#000000;stop-opacity:1;"
         offset="0"
         id="stop5531-8" />
    </linearGradient>
    <linearGradient
       inkscape:collect="always"
       xlink:href="#linearGradient5529-1"
       id="linearGradient5533-0"
       x1="-0.90625"
       y1="6.15625"
       x2="12.46875"
       y2="6.15625"
       gradientUnits="userSpaceOnUse" />
    <linearGradient
       id="linearGradient5529-1"
       osb:paint="solid">
      <stop
         style="stop-color:#000000;stop-opacity:1;"
         offset="0"
         id="stop5531-1" />
    </linearGradient>
  </defs>
  <g
     inkscape:groupmode="layer"
     id="layer9"
     inkscape:label="status"
     style="display:inline"
     transform="translate(-283.00021,-629)" />
  <g
     inkscape:groupmode="layer"
     id="layer10"
     inkscape:label="devices"
     transform="translate(-283.00021,-629)" />
  <g
     inkscape:groupmode="layer"
     id="layer1"
     inkscape:label="on"
     style="display:inline" />
  <g
     inkscape:groupmode="layer"
     id="layer2"
     inkscape:label="off"
     style="display:none">
    <path
       inkscape:connector-curvature="0"
       d="m 6.555174,3.6689621 c -1.97865,-0.004 -4.74917,0.59448 -4.36893,1.9299 0.27853,0.9782 2.7468,1.37112 4.2822,1.34057 2.39093,-0.0476 3.99564,-0.15186 4.49936,-1.16589 0.66845,-1.34563 -2.32411,-2.10075 -4.41263,-2.10458 z"
       id="path6309"
       style="color:#000000;font-style:normal;font-variant:normal;font-weight:normal;font-stretch:normal;font-size:medium;line-height:normal;font-family:Sans;-inkscape-font-specification:Sans;text-indent:0;text-align:start;text-decoration:none;text-decoration-line:none;letter-spacing:normal;word-spacing:normal;text-transform:none;writing-mode:lr-tb;direction:ltr;baseline-shift:baseline;text-anchor:start;display:inline;overflow:visible;visibility:visible;fill:#bebebe;fill-opacity:1;fill-rule:nonzero;stroke:none;stroke-width:1.70000005;marker:none;enable-background:accumulate"
       sodipodi:nodetypes="sssss" />
  </g>
  <g
     inkscape:groupmode="layer"
     id="layer13"
     inkscape:label="places"
     transform="translate(-283.00021,-629)" />
  <g
     inkscape:groupmode="layer"
     id="layer14"
     inkscape:label="mimetypes"
     transform="translate(-283.00021,-629)" />
  <g
     inkscape:groupmode="layer"
     id="layer15"
     inkscape:label="emblems"
     style="display:inline"
     transform="translate(-283.00021,-629)" />
  <g
     inkscape:groupmode="layer"
     id="g71291"
     inkscape:label="emotes"
     style="display:inline"
     transform="translate(-283.00021,-629)" />
  <g
     inkscape:groupmode="layer"
     id="g4953"
     inkscape:label="categories"
     style="display:inline"
     transform="translate(-283.00021,-629)" />
  <g
     inkscape:groupmode="layer"
     id="layer12"
     inkscape:label="actions"
     style="display:inline"
     transform="translate(-283.00021,-629)" />
  <g
     inkscape:groupmode="layer"
     id="layer11"
     inkscape:label="apps"
     style="display:inline"
     transform="translate(-283.00021,-629)">
    <path
       style="color:#000000;font-style:normal;font-variant:normal;font-weight:normal;font-stretch:normal;font-size:medium;line-height:normal;font-family:sans-serif;font-variant-ligatures:normal;font-variant-position:normal;font-variant-caps:normal;font-variant-numeric:normal;font-variant-alternates:normal;font-feature-settings:normal;text-indent:0;text-align:start;text-decoration:none;text-decoration-line:none;text-decoration-style:solid;text-decoration-color:#000000;letter-spacing:normal;word-spacing:normal;text-transform:none;writing-mode:lr-tb;direction:ltr;text-orientation:mixed;dominant-baseline:auto;baseline-shift:baseline;text-anchor:start;white-space:normal;shape-padding:0;clip-rule:nonzero;display:inline;overflow:visible;visibility:visible;opacity:1;isolation:auto;mix-blend-mode:normal;color-interpolation:sRGB;color-interpolation-filters:linearRGB;solid-color:#000000;solid-opacity:1;vector-effect:none;fill:#bebebe;fill-opacity:1;fill-rule:nonzero;stroke:none;stroke-width:1.70666683;stroke-linecap:round;stroke-linejoin:miter;stroke-miterlimit:4;stroke-dasharray:none;stroke-dashoffset:0;stroke-opacity:1;color-rendering:auto;image-rendering:auto;shape-rendering:auto;text-rendering:auto;enable-background:accumulate"
       d="M 2.5136719 1.7714844 A 0.64006405 0.64006405 0 0 0 1.9335938 2.5800781 L 1.9101562 10.009766 A 0.64006405 0.64006405 0 0 0 1.9101562 10.042969 A 0.64006405 0.64006405 0 0 0 1.9140625 10.105469 A 0.6406928 0.6406928 0 0 0 1.9140625 10.111328 A 0.64006405 0.64006405 0 0 0 1.921875 10.154297 A 0.6406928 0.6406928 0 0 0 1.9277344 10.185547 A 0.64006405 0.64006405 0 0 0 1.9316406 10.201172 A 0.6406928 0.6406928 0 0 0 1.9414062 10.232422 A 0.64006405 0.64006405 0 0 0 1.9921875 10.349609 A 0.64006405 0.64006405 0 0 0 2.0664062 10.455078 A 0.64006405 0.64006405 0 0 0 2.2675781 10.609375 A 0.64006405 0.64006405 0 0 0 2.4511719 10.667969 A 0.64006405 0.64006405 0 0 0 2.5859375 10.675781 L 2.6054688 10.675781 L 3.9804688 10.695312 A 0.64006405 0.64006405 0 0 0 4.1035156 10.689453 L 4.0976562 12.404297 A 0.64006405 0.64006405 0 0 0 4.1621094 12.826172 A 0.64006405 0.64006405 0 0 0 4.90625 13.166016 L 6.1796875 13.1875 A 0.6406928 0.6406928 0 0 0 6.2265625 13.185547 L 6.2207031 14.75 A 0.85341872 0.85341872 0 0 0 7.0625 15.826172 L 16.4375 15.867188 A 0.85417603 0.85417603 0 0 0 16.558594 15.857422 A 0.85416804 0.85416804 0 0 0 16.564453 15.857422 A 0.85416804 0.85416804 0 0 0 17.396484 15.005859 L 17.416016 7.4238281 A 0.85341872 0.85341872 0 0 0 16.554688 6.5566406 A 0.85341872 0.85341872 0 0 0 16.380859 6.5761719 L 14.919922 6.5703125 L 14.919922 4.9667969 A 0.64006405 0.64006405 0 0 0 14.271484 4.3164062 A 0.64006405 0.64006405 0 0 0 14.136719 4.3339844 L 12.640625 4.328125 A 0.64006405 0.64006405 0 0 0 12.65625 4.1679688 L 12.65625 2.4199219 A 0.64006405 0.64006405 0 0 0 12.007812 1.7734375 A 0.64006405 0.64006405 0 0 0 11.804688 1.8105469 L 2.5761719 1.7714844 A 0.64006405 0.64006405 0 0 0 2.5136719 1.7714844 z M 3.2109375 3.0527344 L 11.376953 3.0878906 L 11.376953 4.1679688 A 0.64006405 0.64006405 0 0 0 11.390625 4.3222656 L 4.7753906 4.2929688 A 0.64062759 0.64062759 0 0 0 4.7636719 4.2929688 A 0.64006405 0.64006405 0 0 0 4.7519531 4.2929688 A 0.64006405 0.64006405 0 0 0 4.1191406 4.9414062 L 4.1054688 9.4238281 A 0.64006405 0.64006405 0 0 0 4 9.4160156 L 3.1914062 9.4042969 L 3.2109375 3.0527344 z M 5.3984375 5.5761719 L 13.640625 5.6113281 L 13.640625 6.5644531 L 7.296875 6.5371094 A 0.85341872 0.85341872 0 0 0 7.0878906 6.5117188 A 0.85341872 0.85341872 0 0 0 6.2441406 7.375 L 6.2304688 11.908203 A 0.6406928 0.6406928 0 0 0 6.1972656 11.90625 L 5.3789062 11.894531 L 5.3984375 5.5761719 z M 7.9472656 8.2480469 L 15.708984 8.2792969 L 15.689453 14.154297 L 7.9316406 14.125 L 7.9472656 8.2480469 z "
       transform="matrix(0.93749995,0,0,0.93749995,283.00021,629)"
       id="path3084-2" />
    <path
       style="fill:#ffffff;stroke-width:0.04419417"
       d="M 8.3714082,15.800503 6.7292057,15.777101 6.5594471,15.639833 C 6.2286657,15.372361 6.2235205,15.349506 6.2317112,14.184018 l 0.00728,-1.03647 H 5.3914803 c -1.2900103,0 -1.2777923,0.01412 -1.2777923,-1.476135 V 10.672674 L 3.3292414,10.672409 C 2.8977958,10.672277 2.4718533,10.651903 2.3827024,10.627141 2.2917735,10.601886 2.1608059,10.514007 2.0843917,10.426976 L 1.9481735,10.271851 1.9483387,6.2406704 c 1.584e-4,-3.8661036 0.00356,-4.0367545 0.083171,-4.1673 0.045653,-0.074866 0.1577594,-0.1715926 0.2491251,-0.2149485 0.1574138,-0.074698 0.4234564,-0.077384 5.0764992,-0.051268 4.644716,0.02607 4.916357,0.031892 5.020865,0.1076047 0.243361,0.1763075 0.265021,0.2915669 0.265096,1.4106339 l 6.9e-5,1.0275145 0.917029,1.635e-4 c 1.348998,2.431e-4 1.336873,-0.012175 1.336873,1.3692311 v 0.8919992 l 0.939527,-0.013605 c 0.877057,-0.0127 0.951255,-0.00755 1.115903,0.077438 0.191168,0.098677 0.352189,0.3018351 0.412225,0.5200969 0.03913,0.1422681 0.02124,7.7588743 -0.01883,8.0163373 -0.029,0.186318 -0.256097,0.443865 -0.481803,0.546401 -0.166917,0.07583 -0.369997,0.07997 -3.513816,0.07171 -1.835163,-0.0048 -4.0756507,-0.0193 -4.9788616,-0.03217 z m 7.3412258,-3.857246 c 0.01682,-1.221417 0.02415,-2.5488992 0.0163,-2.9499613 L 15.714659,8.2640918 11.814523,8.2528033 7.914387,8.2415143 v 2.9317867 c 0,1.612483 0.013258,2.945046 0.029463,2.96125 0.016204,0.0162 1.76393,0.02946 3.883834,0.02946 h 3.854373 z M 6.2527549,9.513991 c 0.031026,-2.3509387 0.03344,-2.3993534 0.127997,-2.5675958 0.053851,-0.095814 0.1786086,-0.2196676 0.2827468,-0.2806966 l 0.1863722,-0.1092215 3.4048791,0.0045 3.40488,0.0045 V 6.0849824 5.6044862 L 9.5394054,5.5781185 C 7.273282,5.5636162 5.4143878,5.5565441 5.4085293,5.5624027 c -0.00586,0.00586 -0.02441,1.4364895 -0.041225,3.1791802 L 5.336732,11.910111 H 5.7789323 6.2211326 Z M 4.1200592,7.1039947 4.135879,4.7727521 4.2359656,4.6117289 C 4.4443306,4.2765031 4.2538327,4.2910081 8.0355564,4.3224181 l 3.3701706,0.027992 V 3.7108431 3.0712764 l -1.6241362,-4.3e-5 C 8.8883161,3.0712097 7.0387899,3.0580097 5.6715327,3.0418999 l -2.4859223,-0.02929 v 3.211314 3.2113139 h 0.4593145 0.4593145 z"
       id="path35"
       inkscape:connector-curvature="0"
       transform="matrix(0.93749995,0,0,0.93749995,283.00021,629)" />
  </g>
</svg>
